<?xml version="1.0" encoding="UTF-8" standalone="no"?>
<!-- Created with Inkscape (http://www.inkscape.org/) -->

<svg
   width="210mm"
   height="297mm"
   viewBox="0 0 210 297"
   version="1.1"
   id="svg5"
   inkscape:version="1.1.1 (3bf5ae0d25, 2021-09-20)"
   sodipodi:docname="car.svg"
   xmlns:inkscape="http://www.inkscape.org/namespaces/inkscape"
   xmlns:sodipodi="http://sodipodi.sourceforge.net/DTD/sodipodi-0.dtd"
   xmlns="http://www.w3.org/2000/svg"
   xmlns:svg="http://www.w3.org/2000/svg">
  <sodipodi:namedview
     id="namedview7"
     pagecolor="#ffffff"
     bordercolor="#666666"
     borderopacity="1.0"
     inkscape:pageshadow="2"
     inkscape:pageopacity="0.0"
     inkscape:pagecheckerboard="0"
     inkscape:document-units="mm"
     showgrid="false"
     inkscape:zoom="0.57370932"
     inkscape:cx="396.54228"
     inkscape:cy="560.38832"
     inkscape:window-width="1920"
     inkscape:window-height="1017"
     inkscape:window-x="-8"
     inkscape:window-y="-8"
     inkscape:window-maximized="1"
     inkscape:current-layer="layer1" />
  <defs
     id="defs2" />
  <g
     inkscape:label="Слой 1"
     inkscape:groupmode="layer"
     id="layer1">
    <g
       id="Layer1000"
       transform="matrix(0.16462743,-0.16474358,0.1620115,0.16740362,-83.630001,29.531917)">
      <path
         d="m 423.9038,241.3308 c -13.9846,-15.8724 -31.9627,-30.4109 -55.099,-35.4163 -19.5391,-4.2275 -43.177,2.4175 -58.988,18.4447 -12.8773,13.0532 -26.2484,25.7637 -38.1862,41.0147 -9.7045,-5.9823 -19.9123,-8.7365 -23.5404,-0.2786 -0.9331,2.1754 16.1538,10.9974 19.3157,10.2154 1.0866,-0.2687 1.815,1.5841 2.6346,1.6721 -24.6595,18.9077 -50.5595,41.664 -73.0136,65.2951 -8.4126,1.01 -15.0113,9.6451 -15.7329,16.6184 -9.135,9.8005 -17.1506,18.1276 -25.6364,28.8134 -6.7514,1.6847 -15.4086,8.7624 -23.1001,15.7945 -13.043,13.3573 -26.6763,25.8886 -37.9487,41.2523 -9.2801,13.3499 -10.4912,28.7452 -5.4226,46.67 5.5387,19.5879 19.6521,36.3892 33.9428,50.6791 14.29,14.2908 31.0912,28.4041 50.6792,33.9429 17.9247,5.0685 33.3201,3.8575 46.67,-5.4227 15.3637,-11.2723 27.895,-24.9056 41.2523,-37.9487 7.032,-7.6914 14.1097,-16.3486 15.7944,-23.1 10.6859,-8.4858 19.0129,-16.5014 28.8134,-25.6365 6.9733,-0.7216 15.6085,-7.3202 16.6185,-15.7329 23.631,-22.454 46.3874,-48.3541 65.295,-73.0136 0.088,0.8196 1.9409,1.548 1.6721,2.6346 -0.7819,3.162 8.04,20.2488 10.2154,19.3158 8.458,-3.6282 5.7037,-13.836 -0.2786,-23.5404 15.2511,-11.9378 27.9615,-25.309 41.0148,-38.1862 16.0271,-15.8111 22.6721,-39.449 18.4446,-58.988 -5.0053,-23.1364 -19.5438,-41.1144 -35.4163,-55.0991 z"
         style="fill:#ffd326;fill-rule:evenodd"
         id="path828" />
      <path
         d="m 423.9038,241.3308 c -13.9846,-15.8724 -31.9627,-30.4109 -55.099,-35.4163 -19.5391,-4.2275 -43.177,2.4175 -58.988,18.4447 -12.8773,13.0532 -26.2484,25.7637 -38.1862,41.0147 -9.7045,-5.9823 -19.9123,-8.7365 -23.5404,-0.2786 -0.9331,2.1754 16.1538,10.9974 19.3157,10.2154 1.0866,-0.2687 1.815,1.5841 2.6346,1.6721 -24.6595,18.9077 -50.5595,41.664 -73.0136,65.2951 -8.4126,1.01 -15.0113,9.6451 -15.7329,16.6184 -9.135,9.8005 -17.1506,18.1276 -25.6364,28.8134 -6.7514,1.6847 -15.4086,8.7624 -23.1001,15.7945 -13.043,13.3573 -26.6763,25.8886 -37.9487,41.2523 -9.2801,13.3499 -10.4912,28.7452 -5.4226,46.67 5.5387,19.5879 19.6521,36.3892 33.9428,50.6791 14.29,14.2908 31.0912,28.4041 50.6792,33.9429 17.9247,5.0685 33.3201,3.8575 46.67,-5.4227 15.3637,-11.2723 27.895,-24.9056 41.2523,-37.9487 7.032,-7.6914 14.1097,-16.3486 15.7944,-23.1 10.6859,-8.4858 19.0129,-16.5014 28.8134,-25.6365 6.9733,-0.7216 15.6085,-7.3202 16.6185,-15.7329 23.631,-22.454 46.3874,-48.3541 65.295,-73.0136 0.088,0.8196 1.9409,1.548 1.6721,2.6346 -0.7819,3.162 8.04,20.2488 10.2154,19.3158 8.458,-3.6282 5.7037,-13.836 -0.2786,-23.5404 15.2511,-11.9378 27.9615,-25.309 41.0148,-38.1862 16.0271,-15.8111 22.6721,-39.449 18.4446,-58.988 -5.0053,-23.1364 -19.5438,-41.1144 -35.4163,-55.0991 z"
         style="fill:#000000;fill-rule:evenodd"
         id="path830" />
      <path
         d="m 423.904,241.3307 c -13.9848,-15.8723 -31.9629,-30.411 -55.0993,-35.4161 -19.5389,-4.2276 -43.1768,2.4174 -58.9878,18.4445 -12.8773,13.0532 -26.2486,25.7638 -38.1864,41.0148 -9.7044,-5.9823 -19.9123,-8.7364 -23.5403,-0.2787 -0.9332,2.1756 16.1538,10.9976 19.3158,10.2155 1.0865,-0.2687 1.815,1.584 2.6345,1.6722 -24.6594,18.9076 -50.5596,41.6639 -73.0136,65.2949 -8.4127,1.01 -15.0112,9.6452 -15.7329,16.6184 -9.1349,9.8005 -17.1507,18.1275 -25.6365,28.8136 -6.7513,1.6846 -15.4086,8.7625 -23.1001,15.7944 -13.0428,13.3574 -26.6763,25.8885 -37.9485,41.2523 -9.2801,13.3497 -10.4914,28.7453 -5.4227,46.6699 5.5386,19.5879 19.652,36.3892 33.9429,50.6792 z"
         style="fill:#1a1a1a;fill-rule:evenodd"
         id="path832" />
      <path
         d="m 130.6718,425.1901 c 47.5042,-62.4626 94.4113,-112.99 154.8661,-160.0519 -41.5435,60.0694 -94.4642,112.5543 -154.8661,160.0519 z"
         style="fill:#4d4d4d;fill-rule:evenodd"
         id="path834" />
      <path
         d="m 228.4412,364.1925 29.2769,-28.0966 c 3.211,-3.082 8.2386,-3.0874 11.4439,0 10.1039,9.7327 20.5924,19.1079 30.3089,29.1948 10.0869,9.7166 19.4621,20.205 29.1948,30.3089 3.0874,3.2053 3.082,8.2329 0,11.4439 l -28.0966,29.2769 c -3.082,3.211 -8.2968,3.1471 -11.4439,0 -20.2278,-20.2278 -40.4562,-40.4562 -60.684,-60.684 -3.1471,-3.1471 -3.211,-8.3619 0,-11.4439 z"
         style="fill:#4d4d4d;fill-rule:evenodd"
         id="path836" />
      <path
         d="M 228.4413,364.1924 257.718,336.096 c 3.2111,-3.0821 8.2387,-3.0875 11.4441,0 10.1038,9.7328 20.5923,19.1078 30.3089,29.1949 l 0.2406,0.2321 -40.6919,40.6919 -30.5784,-30.5784 c -3.1471,-3.1471 -3.2111,-8.3619 0,-11.4441 z"
         style="fill:#666666;fill-rule:evenodd"
         id="path838" />
      <path
         d="M 400.1365,379.7368 C 337.6739,427.241 287.1464,474.1481 240.0846,534.603 300.154,493.0594 352.6389,440.1387 400.1365,379.7368 Z"
         style="fill:#333333;fill-rule:evenodd"
         id="path840" />
      <path
         d="m 150.7077,514.5269 c -14.7882,-14.8251 -26.073,-32.4742 -31.1146,-55.1578 15.0859,-15.5573 30.1717,-31.1146 45.2576,-46.672 9.0012,15.9248 23.3469,32.4665 38.6576,49.0292 16.5628,15.3108 33.1045,29.6565 49.0292,38.6576 -15.5573,15.0859 -31.1147,30.1718 -46.672,45.2577 -22.6835,-5.0417 -40.3327,-16.3264 -55.1578,-31.1147 z"
         style="fill:#333333;fill-rule:evenodd"
         id="path842" />
      <path
         d="m 150.7076,514.527 c -14.788,-14.8252 -26.0728,-32.4742 -31.1145,-55.1579 15.0857,-15.5574 30.1717,-31.1145 45.2577,-46.6719 9.0011,15.9248 23.3467,32.4663 38.6575,49.0292 z"
         style="fill:#4d4d4d;fill-rule:evenodd"
         id="path844" />
      <path
         d="m 124.5634,454.2441 40.2873,-41.547 c 9.0012,15.9248 23.3469,32.4665 38.6576,49.0292 16.5628,15.3108 33.1045,29.6565 49.0292,38.6576 l -38.8592,37.6807 C 195.878,527.0163 176.714,511.7757 158.241,493.3028 145.3255,480.3872 133.9918,467.1338 124.5634,454.2441 Z"
         style="fill:#4d4d4d;fill-rule:evenodd"
         id="path846" />
      <path
         d="m 124.5634,454.244 40.2874,-41.5468 c 9.0011,15.9248 23.3467,32.4663 38.6575,49.0292 l -38.3315,38.3315 c -2.3199,-2.2003 -4.6332,-4.4524 -6.9358,-6.755 -12.9155,-12.9158 -24.2493,-26.1692 -33.6776,-39.0589 z"
         style="fill:#666666;fill-rule:evenodd"
         id="path848" />
      <path
         d="M 316.2403,348.9944 C 299.699,332.6816 282.1036,318.3181 261.259,307.803 c 12.493,-16.7359 24.9861,-33.4718 37.4791,-50.2077 25.8246,-6.3303 52.0197,5.2804 78.4938,30.4075 25.1271,26.4741 36.7378,52.6691 30.4075,78.4938 -16.736,12.493 -33.4719,24.986 -50.2078,37.479 -10.515,-20.8445 -24.8786,-38.4399 -41.1913,-54.9812 z"
         style="fill:#333333;fill-rule:evenodd"
         id="path850" />
      <path
         d="m 316.2402,348.9945 c -16.5413,-16.3128 -34.1365,-30.6765 -54.9811,-41.1914 12.4928,-16.736 24.986,-33.472 37.4788,-50.2078 25.8248,-6.3303 52.0197,5.2804 78.4939,30.4075 z"
         style="fill:#4d4d4d;fill-rule:evenodd"
         id="path852" />
      <path
         d="M 316.2403,348.9944 C 299.699,332.6816 282.1036,318.3181 261.259,307.803 l 32.2147,-43.1546 c 15.962,10.607 32.7968,24.3846 49.0935,40.6814 23.6798,23.6797 42.0497,48.497 53.0811,70.1176 l -38.2167,28.5282 c -10.515,-20.8445 -24.8786,-38.4399 -41.1913,-54.9812 z"
         style="fill:#4d4d4d;fill-rule:evenodd"
         id="path854" />
      <path
         d="M 316.2402,348.9945 C 299.6989,332.6817 282.1037,318.318 261.2591,307.8031 l 32.2146,-43.1546 c 15.9619,10.6069 32.7969,24.3844 49.0935,40.6814 2.9234,2.9234 5.7654,5.8646 8.5232,8.8143 z"
         style="fill:#666666;fill-rule:evenodd"
         id="path856" />
      <path
         d="m 449.4997,294.6166 c -2.2184,0.9771 -3.2264,8.9723 -2.2516,17.8543 0.9754,8.8821 3.5649,15.2927 5.7827,14.3158 2.2181,-0.9771 3.2261,-8.9722 2.2516,-17.8543 -0.9752,-8.8823 -3.5646,-15.2929 -5.7827,-14.3158 z"
         style="fill:#e6e6e6;fill-rule:evenodd"
         id="path858" />
      <path
         d="m 338.4479,212.2038 c 0.9771,-2.2184 8.9725,-3.2264 17.8543,-2.2515 8.8824,0.9751 15.2929,3.5646 14.3158,5.7827 -0.9768,2.2181 -8.9722,3.2261 -17.8543,2.2515 -8.8821,-0.9754 -15.2926,-3.5648 -14.3158,-5.7827 z"
         style="fill:#ffffff;fill-rule:evenodd"
         id="path860" />
      <path
         d="m 175.4405,563.9922 c -2.3431,2.3431 2.1571,5.6539 10.0494,7.3936 7.8919,1.7402 16.192,1.2509 18.5349,-1.0919 2.3431,-2.3429 -2.1572,-5.6537 -10.0491,-7.3939 -7.8923,-1.7397 -16.1924,-1.2507 -18.5352,1.0922 z"
         style="fill:#f02800;fill-rule:evenodd"
         id="path862" />
      <path
         d="m 94.9405,461.2099 c 2.3431,-2.3428 5.654,2.1574 7.3936,10.0494 1.7402,7.8919 1.2509,16.1923 -1.0919,18.5352 -2.3428,2.3428 -5.6537,-2.1575 -7.3939,-10.0491 -1.7396,-7.8923 -1.2506,-16.1924 1.0922,-18.5355 z"
         style="fill:#ff4a26;fill-rule:evenodd"
         id="path864" />
    </g>
  </g>
</svg>
