<?xml version='1.0' encoding='utf-8'?>
<!DOCTYPE svg PUBLIC '-//W3C//DTD SVG 1.1//EN' 'http://www.w3.org/Graphics/SVG/1.1/DTD/svg11.dtd'>
<svg version="1.1" xmlns="http://www.w3.org/2000/svg" viewBox="0 0 512 512" xmlns:xlink="http://www.w3.org/1999/xlink" enable-background="new 0 0 512 512">
  <g>
    <path d="m338.9,265.2h163.3v-20.5c0-44-11.7-87.2-34-124.8-21.6-36.6-52.4-67.1-89.1-88.4l-17.8-10.3-81.7,141.4c-7.5-2.2-15.5-3.4-23.7-3.4s-16.2,1.2-23.7,3.4l-81.6-141.5-17.8,10.3c-36.7,21.3-67.6,51.8-89.1,88.4-22.2,37.7-34,80.9-34,124.8v20.5h163.3c3.9,15.9 12.3,30 23.8,41l-81.7,141.4 17.7,10.3c37.3,21.6 79.9,33 123.1,33s85.9-11.4 123.1-33l17.7-10.3-81.7-141.4c11.6-10.9 20-25.1 23.9-40.9zm36.9-187.1c47.6,34.3 78.4,87.8 84.3,146.1h-120.1c-3.9-15.9-12.4-30.5-24.2-41.9l60-104.2zm-75.3,166.6c0,24.5-19.9,44.5-44.5,44.5-24.5,0-44.5-19.9-44.5-44.5s19.9-44.5 44.5-44.5c24.5,0 44.5,19.9 44.5,44.5zm-164.3-166.6l60.1,104.2c-11.9,11.4-20.3,26-24.2,41.9h-120.3c5.9-58.4 36.8-111.8 84.4-146.1zm119.8,371.8c-29.2,0-58-6.2-84.4-18.1l60.1-104.1c15.7,4.6 32.8,4.6 48.5,0l60.1,104.1c-26.3,11.8-55.1,18.1-84.3,18.1z"/>
  </g>
</svg>
